{
.appVersion = "3108";
.formatVersion = 3;
date = "2022-03-21 11:53:37 +0000";
familyName = EorzeaSmart;
fontMaster = (
{
id = m01;
metricValues = (
{
over = 16;
pos = 800;
},
{
over = -16;
},
{
over = -16;
pos = -200;
}
);
name = Regular;
}
);
glyphs = (
{
glyphname = A;
lastChange = "2022-02-28 14:18:54 +0000";
layers = (
{
layerId = m01;
shapes = (
{
attr = {
fillColor = (0,255);
};
closed = 1;
nodes = (
(106,632,o),
(97,500,o),
(84,402,c),
(68,285,o),
(20,0,o),
(20,0,c),
(20,0,o),
(70,130,o),
(170,130,c),
(220,130,o),
(320,0,o),
(420,0,c),
(520,0,o),
(670,200,o),
(670,300,c),
(670,400,o),
(570,500,o),
(470,500,c),
(370,500,o),
(178,400,o),
(178,400,c),
(178,400,o),
(185,449,o),
(188,473,c),
(192,497,o),
(200,531,o),
(200,531,c),
(200,531,o),
(444,675,o),
(495,675,c),
(595,675,o),
(570,650,o),
(620,650,c),
(645,650,o),
(670,675,o),
(670,700,c),
(670,750,o),
(620,800,o),
(570,800,c),
(470,800,o),
(211,625,o),
(211,625,c),
(211,625,o),
(217,679,o),
(220,701,c),
(223,722,o),
(270,725,o),
(270,750,c),
(270,775,o),
(245,800,o),
(220,800,c),
(195,800,o),
(130,745,o),
(120,700,c)
);
},
{
attr = {
fillColor = (0,255);
};
closed = 1;
nodes = (
(170,290,o),
(320,400,o),
(445,400,c),
(495,400,o),
(570,350,o),
(570,300,c),
(570,225,o),
(492,126,o),
(420,125,c),
(366,125,o),
(340,141,o),
(285,171,c),
(210,214,o),
(159,213,o),
(159,213,c),
(159,213,o),
(162,233,o),
(164,248,c),
(167,264,o),
(170,290,o),
(170,290,c)
);
}
);
width = 690;
}
);
unicode = 65;
},
{
glyphname = B;
lastChange = "2022-02-28 14:23:39 +0000";
layers = (
{
layerId = m01;
shapes = (
{
attr = {
fillColor = (0,255);
};
closed = 1;
nodes = (
(320,250,l),
(320,250,o),
(370,250,o),
(420,250,c),
(495,250,o),
(720,400,o),
(720,600,c),
(720,750,o),
(620,800,o),
(520,800,c),
(220,800,o),
(20,400,o),
(20,150,c),
(20,50,o),
(120,0,o),
(220,0,c),
(420,0,o),
(620,250,o),
(620,250,c),
(620,250,o),
(243,26,o),
(170,150,c),
(63,332,o),
(320,591,o),
(320,591,c)
);
},
{
attr = {
fillColor = (0,255);
};
closed = 1;
nodes = (
(420,645,o),
(487,700,o),
(520,700,c),
(575,699,o),
(620,650,o),
(620,600,c),
(620,450,o),
(420,350,o),
(420,350,c),
(420,645,l)
);
}
);
width = 740;
}
);
unicode = 66;
},
{
glyphname = C;
lastChange = "2022-02-28 14:25:21 +0000";
layers = (
{
layerId = m01;
shapes = (
{
attr = {
fillColor = (0,255);
};
closed = 1;
nodes = (
(470,800,o),
(20,600,o),
(20,350,c),
(20,0,o),
(470,0,o),
(470,0,c),
(570,65,l),
(570,800,l),
(470,800,l)
);
},
{
attr = {
fillColor = (0,255);
};
closed = 1;
nodes = (
(470,100,l),
(470,100,o),
(120,75,o),
(120,350,c),
(122,542,o),
(470,685,o),
(470,685,c)
);
}
);
width = 590;
}
);
unicode = 67;
},
{
glyphname = D;
lastChange = "2022-02-28 14:27:52 +0000";
layers = (
{
layerId = m01;
shapes = (
{
attr = {
fillColor = (0,255);
};
closed = 1;
nodes = (
(770,700,o),
(695,800,o),
(620,800,c),
(420,800,o),
(20,400,o),
(20,200,c),
(20,50,o),
(170,0,o),
(270,0,c),
(620,0,o),
(420,700,o),
(570,700,c),
(614,700,o),
(670,650,o),
(670,600,c),
(670,500,o),
(720,500,o),
(720,500,c),
(720,500,o),
(770,500,o),
(770,600,c)
);
},
{
attr = {
fillColor = (0,255);
};
closed = 1;
nodes = (
(420,600,o),
(420,100,o),
(270,100,c),
(170,100,o),
(120,150,o),
(120,200,c),
(120,400,o),
(420,600,o),
(420,600,c)
);
}
);
width = 790;
}
);
unicode = 68;
},
{
glyphname = E;
lastChange = "2022-02-28 14:31:11 +0000";
layers = (
{
layerId = m01;
shapes = (
{
attr = {
fillColor = (0,255);
};
closed = 1;
nodes = (
(670,550,o),
(620,700,o),
(420,700,c),
(320,700,o),
(220,650,o),
(170,650,c),
(70,650,o),
(170,800,o),
(170,800,c),
(170,800,o),
(20,750,o),
(20,650,c),
(20,550,o),
(120,550,o),
(170,550,c),
(320,550,o),
(345,600,o),
(420,600,c),
(570,600,o),
(561,398,o),
(561,398,c),
(220,400,l),
(120,300,l),
(553,300,l),
(553,300,o),
(520,100,o),
(370,100,c),
(270,100,o),
(225,131,o),
(170,175,c),
(148,192,o),
(99,119,o),
(120,100,c),
(169,56,o),
(270,0,o),
(370,0,c),
(520,0,o),
(670,100,o),
(670,400,c)
);
}
);
width = 690;
}
);
unicode = 69;
},
{
glyphname = F;
lastChange = "2022-02-28 14:45:30 +0000";
layers = (
{
layerId = m01;
shapes = (
{
attr = {
fillColor = (0,255);
};
closed = 1;
nodes = (
(520,550,o),
(570,603,o),
(570,650,c),
(570,750,o),
(370,800,o),
(270,800,c),
(170,800,o),
(20,700,o),
(20,600,c),
(20,400,o),
(20,150,o),
(20,50,c),
(20,26,o),
(20,0,o),
(45,0,c),
(70,0,o),
(119,42,o),
(120,75,c),
(120,200,o),
(120,500,o),
(120,600,c),
(121,652,o),
(170,700,o),
(270,700,c),
(470,700,o),
(420,550,o),
(470,550,c)
);
}
);
width = 590;
}
);
unicode = 70;
},
{
glyphname = G;
lastChange = "2022-03-01 14:08:15 +0000";
layers = (
{
layerId = m01;
shapes = (
{
attr = {
fillColor = (0,255);
};
closed = 1;
nodes = (
(573,450,l),
(570,800,l),
(570,800,o),
(522,801,o),
(470,800,c),
(420,800,o),
(20,600,o),
(20,450,c),
(20,416,o),
(20,356,o),
(20,300,c),
(20,50,o),
(420,0,o),
(420,0,c),
(570,100,l),
(570,350,l),
(670,350,l),
(720,450,l)
);
},
{
attr = {
fillColor = (0,255);
};
closed = 1;
nodes = (
(470,450,l),
(320,450,l),
(270,375,l),
(470,375,l),
(470,103,l),
(470,103,o),
(439,99,o),
(421,99,c),
(321,101,o),
(120,200,o),
(120,315,c),
(120,345,o),
(120,380,o),
(120,425,c),
(120,550,o),
(470,700,o),
(470,700,c)
);
}
);
width = 740;
}
);
unicode = 71;
},
{
glyphname = H;
lastChange = "2022-03-01 14:15:20 +0000";
layers = (
{
layerId = m01;
shapes = (
{
attr = {
fillColor = (0,255);
};
closed = 1;
nodes = (
(220,775,o),
(195,800,o),
(170,800,c),
(120,800,o),
(20,725,o),
(20,700,c),
(20,675,o),
(120,675,o),
(120,650,c),
(120,505,o),
(120,175,o),
(120,25,c),
(120,0,o),
(120,0,o),
(145,0,c),
(170,0,o),
(220,25,o),
(220,50,c),
(220,200,o),
(222,397,o),
(222,397,c),
(222,397,o),
(320,500,o),
(370,500,c),
(420,500,o),
(600,500,o),
(600,350,c),
(600,250,o),
(420,0,o),
(420,0,c),
(420,0,o),
(720,100,o),
(720,350,c),
(720,500,o),
(520,550,o),
(520,550,c),
(520,550,o),
(620,625,o),
(620,700,c),
(620,750,o),
(545,800,o),
(520,800,c),
(495,800,o),
(445,775,o),
(445,750,c),
(445,725,o),
(500,725,o),
(500,700,c),
(500,675,o),
(472,639,o),
(422,601,c),
(347,551,o),
(221,433,o),
(221,433,c),
(221,433,o),
(219,609,o),
(220,750,c)
);
}
);
width = 740;
}
);
unicode = 72;
},
{
glyphname = I;
lastChange = "2022-03-01 14:17:24 +0000";
layers = (
{
layerId = m01;
shapes = (
{
attr = {
fillColor = (0,255);
};
closed = 1;
nodes = (
(145,800,l),
(145,800,o),
(68,701,o),
(45,675,c),
(35,665,o),
(35,650,o),
(45,650,c),
(60,650,o),
(120,649,o),
(116,626,c),
(97,501,o),
(20,0,o),
(20,0,c),
(120,0,l),
(120,0,o),
(220,500,o),
(220,600,c),
(220,700,o),
(220,800,o),
(220,800,c)
);
}
);
width = 240;
}
);
unicode = 73;
},
{
glyphname = J;
lastChange = "2022-03-01 14:21:39 +0000";
layers = (
{
layerId = m01;
shapes = (
{
attr = {
fillColor = (0,255);
};
closed = 1;
nodes = (
(220,800,o),
(205,800,o),
(195,800,c),
(171,800,o),
(70,715,o),
(70,700,c),
(70,687,o),
(70,685,o),
(70,675,c),
(70,653,o),
(97,663,o),
(95,653,c),
(79,574,o),
(20,300,o),
(20,200,c),
(20,100,o),
(120,0,o),
(320,0,c),
(520,0,o),
(620,200,o),
(620,200,c),
(620,200,o),
(421,100,o),
(320,100,c),
(95,100,o),
(145,350,o),
(145,350,c),
(570,350,l),
(620,450,l),
(150,450,l),
(150,450,o),
(167,600,o),
(208,699,c),
(211,706,o),
(220,700,o),
(220,720,c),
(220,751,o),
(220,800,o),
(220,800,c)
);
}
);
width = 640;
}
);
unicode = 74;
},
{
glyphname = K;
lastChange = "2022-03-01 14:34:05 +0000";
layers = (
{
layerId = m01;
shapes = (
{
attr = {
fillColor = (0,255);
};
closed = 1;
nodes = (
(720,700,o),
(620,800,o),
(520,800,c),
(320,800,o),
(220,666,o),
(220,666,c),
(245,800,l),
(245,800,o),
(220,800,o),
(145,800,c),
(120,800,o),
(20,700,o),
(20,675,c),
(20,650,o),
(120,645,o),
(120,620,c),
(119,501,o),
(75,349,o),
(75,349,c),
(75,349,o),
(220,400,o),
(220,500,c),
(220,580,o),
(330,700,o),
(470,700,c),
(520,700,o),
(620,650,o),
(620,600,c),
(620,550,o),
(570,475,o),
(520,475,c),
(470,475,o),
(470,500,o),
(370,500,c),
(326,500,o),
(270,449,o),
(270,400,c),
(270,301,o),
(265,262,o),
(241,200,c),
(216,133,o),
(120,0,o),
(120,0,c),
(120,0,o),
(354,-1,o),
(370,200,c),
(375,264,o),
(370,375,o),
(370,375,c),
(370,375,o),
(470,375,o),
(520,375,c),
(570,375,o),
(720,500,o),
(720,600,c)
);
}
);
width = 740;
}
);
unicode = 75;
},
{
glyphname = L;
lastChange = "2022-03-01 14:54:08 +0000";
layers = (
{
layerId = m01;
shapes = (
{
attr = {
fillColor = (0,255);
};
closed = 1;
nodes = (
(495,800,o),
(456,800,o),
(438,800,c),
(420,800,o),
(275,714,o),
(274,699,c),
(273,681,o),
(273,670,o),
(274,655,c),
(274,634,o),
(351,652,o),
(343,601,c),
(327,501,o),
(270,100,o),
(270,100,c),
(270,100,o),
(120,100,o),
(70,100,c),
(45,100,o),
(20,75,o),
(20,50,c),
(20,25,o),
(20,0,o),
(20,0,c),
(420,0,l),
(420,0,o),
(486,-1,o),
(522,40,c),
(565,91,o),
(620,200,o),
(620,200,c),
(620,200,o),
(541,100,o),
(495,100,c),
(420,100,o),
(370,100,o),
(370,100,c),
(495,800,l)
);
}
);
width = 640;
}
);
unicode = 76;
},
{
glyphname = M;
lastChange = "2022-03-01 15:02:40 +0000";
layers = (
{
layerId = m01;
shapes = (
{
attr = {
fillColor = (0,255);
};
closed = 1;
nodes = (
(320,800,o),
(266,698,o),
(266,698,c),
(266,698,o),
(220,800,o),
(170,800,c),
(70,800,o),
(21,747,o),
(20,700,c),
(20,601,o),
(20,300,o),
(20,200,c),
(20,100,o),
(70,0,o),
(120,0,c),
(220,0,o),
(190,0,o),
(270,0,c),
(320,0,o),
(370,100,o),
(370,100,c),
(370,100,o),
(320,100,o),
(220,100,c),
(170,100,o),
(120,150,o),
(120,200,c),
(120,300,o),
(120,650,o),
(120,650,c),
(120,650,o),
(325,273,o),
(420,100,c),
(444,59,o),
(470,0,o),
(520,0,c),
(570,0,o),
(620,100,o),
(620,100,c),
(620,100,o),
(670,0,o),
(720,0,c),
(820,0,o),
(895,100,o),
(895,100,c),
(895,100,o),
(820,100,o),
(770,100,c),
(720,100,o),
(520,800,o),
(370,800,c)
);
},
{
attr = {
fillColor = (0,255);
};
closed = 1;
nodes = (
(279,664,o),
(345,701,o),
(393,599,c),
(440,502,o),
(620,100,o),
(620,100,c),
(620,100,o),
(590,100,o),
(540,100,c),
(521,101,o),
(279,664,o),
(279,664,c)
);
}
);
width = 915;
}
);
unicode = 77;
},
{
glyphname = N;
lastChange = "2022-03-10 17:09:16 +0000";
layers = (
{
layerId = m01;
shapes = (
{
attr = {
fillColor = (0,255);
};
closed = 1;
nodes = (
(420,800,l),
(370,700,l),
(370,700,o),
(595,594,o),
(595,400,c),
(595,300,o),
(570,215,o),
(470,215,c),
(320,215,o),
(220,400,o),
(220,400,c),
(220,800,l),
(220,800,o),
(170,800,o),
(145,800,c),
(120,800,o),
(20,725,o),
(20,700,c),
(20,650,o),
(120,700,o),
(120,650,c),
(120,500,o),
(120,0,o),
(120,0,c),
(220,100,l),
(220,300,l),
(220,300,o),
(320,100,o),
(470,100,c),
(720,100,o),
(720,294,o),
(720,400,c),
(720,540,o),
(520,700,o),
(520,700,c),
(720,700,l),
(780,800,l)
);
}
);
width = 800;
}
);
unicode = 78;
},
{
glyphname = O;
lastChange = "2022-03-05 04:20:22 +0000";
layers = (
{
layerId = m01;
shapes = (
{
attr = {
fillColor = (0,255);
};
closed = 1;
nodes = (
(807,622,o),
(807,379,o),
(659,192,c),
(511,5,o),
(272,-53,o),
(127,62,c),
(-18,177,o),
(-15,421,o),
(133,608,c),
(281,796,o),
(516,851,o),
(661,736,c)
);
},
{
attr = {
fillColor = (0,255);
};
closed = 1;
nodes = (
(488,726,o),
(328,703,o),
(214,569,c),
(99,436,o),
(99,267,o),
(201,180,c),
(303,92,o),
(469,119,o),
(583,252,c),
(698,386,o),
(692,551,o),
(590,638,c)
);
}
);
width = 790;
}
);
unicode = 79;
},
{
glyphname = P;
lastChange = "2022-03-10 17:13:19 +0000";
layers = (
{
layerId = m01;
shapes = (
{
attr = {
fillColor = (0,255);
};
closed = 1;
nodes = (
(720,750,o),
(620,800,o),
(520,800,c),
(320,800,o),
(19,596,o),
(20,300,c),
(20,150,o),
(170,0,o),
(220,0,c),
(245,0,o),
(270,0,o),
(320,0,c),
(370,0,o),
(420,50,o),
(420,100,c),
(423,201,o),
(420,450,o),
(420,450,c),
(420,450,o),
(622,523,o),
(621,302,c),
(621,152,o),
(420,0,o),
(420,0,c),
(420,0,o),
(720,50,o),
(720,300,c),
(720,525,o),
(620,550,o),
(570,550,c),
(520,550,o),
(460,518,o),
(419,499,c),
(385,483,o),
(320,500,o),
(320,450,c),
(319,310,o),
(320,100,o),
(320,100,c),
(320,100,o),
(120,100,o),
(120,300,c),
(120,701,o),
(520,751,o),
(620,664,c),
(652,635,o),
(720,700,o),
(720,725,c)
);
}
);
width = 740;
}
);
unicode = 80;
},
{
glyphname = Q;
lastChange = "2022-03-10 17:20:16 +0000";
layers = (
{
layerId = m01;
shapes = (
{
attr = {
fillColor = (0,255);
};
closed = 1;
nodes = (
(720,700,o),
(620,800,o),
(470,800,c),
(370,800,o),
(170,700,o),
(170,500,c),
(170,425,o),
(220,350,o),
(270,350,c),
(295,350,o),
(320,400,o),
(320,350,c),
(320,300,o),
(320,199,o),
(220,107,c),
(163,55,o),
(20,50,o),
(20,50,c),
(20,50,o),
(115,0,o),
(165,0,c),
(315,0,o),
(420,200,o),
(420,300,c),
(420,400,o),
(420,400,o),
(420,450,c),
(420,475,o),
(395,500,o),
(370,500,c),
(347,499,o),
(343,450,o),
(320,450,c),
(297,451,o),
(220,700,o),
(470,700,c),
(520,700,o),
(620,650,o),
(620,600,c),
(620,400,o),
(570,500,o),
(570,400,c),
(568,303,o),
(570,200,o),
(570,100,c),
(570,75,o),
(520,0,o),
(520,0,c),
(520,0,o),
(669,41,o),
(670,100,c),
(670,200,o),
(670,300,o),
(670,400,c),
(670,500,o),
(719,405,o),
(720,600,c)
);
}
);
width = 740;
}
);
unicode = 81;
},
{
glyphname = R;
lastChange = "2022-03-18 13:56:07 +0000";
layers = (
{
layerId = m01;
shapes = (
{
attr = {
fillColor = (0,255);
};
closed = 1;
nodes = (
(670,700,o),
(570,800,o),
(470,800,c),
(368,797,o),
(367,751,o),
(270,750,c),
(220,749,o),
(220,800,o),
(195,800,c),
(170,800,o),
(20,725,o),
(20,700,c),
(20,675,o),
(120,700,o),
(120,650,c),
(120,500,o),
(20,100,o),
(20,50,c),
(20,0,o),
(20,0,o),
(45,0,c),
(60,0,o),
(119,36,o),
(131,99,c),
(163,280,o),
(197,486,o),
(220,597,c),
(227,629,o),
(245,647,o),
(272,648,c),
(320,648,o),
(409,699,o),
(470,700,c),
(520,700,o),
(570,650,o),
(570,600,c),
(570,550,o),
(467,526,o),
(420,525,c),
(370,525,o),
(322,468,o),
(320,449,c),
(311,381,o),
(270,50,o),
(270,50,c),
(270,50,o),
(345,50,o),
(370,50,c),
(420,50,o),
(620,200,o),
(620,200,c),
(620,200,o),
(390,100,o),
(395,150,c),
(399,195,o),
(409,300,o),
(420,400,c),
(422,421,o),
(666,447,o),
(670,600,c)
);
}
);
width = 690;
}
);
unicode = 82;
},
{
glyphname = S;
lastChange = "2022-03-18 14:05:40 +0000";
layers = (
{
layerId = m01;
shapes = (
{
attr = {
fillColor = (0,255);
};
closed = 1;
nodes = (
(670,750,o),
(518,800,o),
(420,800,c),
(320,800,o),
(172,700,o),
(120,540,c),
(89,446,o),
(20,50,o),
(20,25,c),
(20,0,o),
(20,0,o),
(45,0,c),
(70,0,o),
(125,50,o),
(135,98,c),
(145,149,o),
(179,298,o),
(179,298,c),
(179,298,o),
(270,400,o),
(370,400,c),
(470,400,o),
(520,350,o),
(520,300,c),
(520,200,o),
(356,93,o),
(320,50,c),
(310,35,o),
(395,30,o),
(420,50,c),
(512,125,o),
(620,200,o),
(620,300,c),
(619,376,o),
(570,500,o),
(370,500,c),
(320,500,o),
(198,446,o),
(198,446,c),
(198,446,o),
(220,700,o),
(420,700,c),
(570,700,o),
(570,550,o),
(595,550,c),
(620,550,o),
(670,600,o),
(670,700,c)
);
}
);
width = 690;
}
);
unicode = 83;
},
{
glyphname = T;
lastChange = "2022-03-18 14:09:11 +0000";
layers = (
{
layerId = m01;
shapes = (
{
attr = {
fillColor = (0,255);
};
closed = 1;
nodes = (
(570,700,o),
(521,800,o),
(371,800,c),
(171,800,o),
(20,600,o),
(20,600,c),
(20,600,o),
(120,725,o),
(320,725,c),
(420,724,o),
(470,650,o),
(470,600,c),
(470,500,o),
(470,200,o),
(470,100,c),
(470,0,o),
(470,0,o),
(495,0,c),
(519,-1,o),
(570,50,o),
(570,100,c),
(570,200,o),
(570,400,o),
(570,600,c)
);
}
);
width = 590;
}
);
unicode = 84;
},
{
glyphname = U;
lastChange = "2022-03-19 17:09:01 +0000";
layers = (
{
layerId = m01;
shapes = (
{
attr = {
fillColor = (0,255);
};
closed = 1;
nodes = (
(120,800,o),
(81,699,o),
(70,675,c),
(60,651,o),
(170,675,o),
(170,625,c),
(170,500,o),
(20,350,o),
(20,250,c),
(20,100,o),
(270,0,o),
(420,0,c),
(620,0,o),
(820,200,o),
(820,400,c),
(820,600,o),
(714,801,o),
(570,800,c),
(420,800,o),
(319,649,o),
(320,550,c),
(320,350,o),
(320,125,o),
(320,125,c),
(320,125,o),
(120,125,o),
(120,250,c),
(119,394,o),
(269,403,o),
(270,700,c),
(270,750,o),
(270,800,o),
(220,800,c)
);
},
{
attr = {
fillColor = (0,255);
};
closed = 1;
nodes = (
(420,600,o),
(445,700,o),
(545,700,c),
(645,700,o),
(720,550,o),
(720,450,c),
(720,125,o),
(422,125,o),
(422,125,c),
(422,125,o),
(420,450,o),
(420,550,c)
);
}
);
width = 840;
}
);
unicode = 85;
},
{
glyphname = V;
lastChange = "2022-03-20 13:59:41 +0000";
layers = (
{
layerId = m01;
shapes = (
{
attr = {
fillColor = (0,255);
};
closed = 1;
nodes = (
(54,502,o),
(20,31,o),
(20,15,c),
(20,0,o),
(20,0,o),
(45,0,c),
(70,0,o),
(770,400,o),
(770,600,c),
(770,700,o),
(770,800,o),
(620,800,c),
(470,800,o),
(245,500,o),
(270,500,c),
(295,500,o),
(620,800,o),
(620,600,c),
(620,425,o),
(120,125,o),
(120,125,c),
(120,125,o),
(177,503,o),
(195,700,c),
(199,733,o),
(200,800,o),
(170,800,c),
(145,800,o),
(80,800,o),
(70,700,c)
);
}
);
width = 790;
}
);
unicode = 86;
},
{
glyphname = W;
lastChange = "2022-03-20 14:16:12 +0000";
layers = (
{
layerId = m01;
shapes = (
{
attr = {
fillColor = (0,255);
};
closed = 1;
nodes = (
(225,735,o),
(230,800,o),
(195,800,c),
(120,800,o),
(82,723,o),
(70,700,c),
(60,680,o),
(126,706,o),
(120,665,c),
(98,507,o),
(20,30,o),
(20,15,c),
(20,0,o),
(20,0,o),
(35,0,c),
(50,0,o),
(420,299,o),
(519,398,c),
(618,496,o),
(620,650,o),
(620,650,c),
(620,650,o),
(795,750,o),
(795,600,c),
(795,400,o),
(295,0,o),
(320,0,c),
(345,0,o),
(920,400,o),
(920,600,c),
(920,700,o),
(870,800,o),
(770,800,c),
(695,800,o),
(617,698,o),
(617,698,c),
(617,698,o),
(620,800,o),
(520,800,c),
(420,800,o),
(270,650,o),
(320,650,c),
(370,650,o),
(609,759,o),
(470,500,c),
(418,403,o),
(155,200,o),
(155,200,c),
(155,200,o),
(208,601,o),
(220,700,c)
);
}
);
width = 940;
}
);
unicode = 87;
},
{
glyphname = X;
lastChange = "2022-03-20 14:59:29 +0000";
layers = (
{
layerId = m01;
shapes = (
{
attr = {
fillColor = (0,255);
};
closed = 1;
nodes = (
(70,800,o),
(20,575,o),
(20,550,c),
(20,525,o),
(130,670,o),
(205,670,c),
(255,670,o),
(354,400,o),
(354,400,c),
(354,400,o),
(20,250,o),
(20,100,c),
(20,50,o),
(70,0,o),
(120,0,c),
(170,0,o),
(270,0,o),
(270,25,c),
(270,50,o),
(145,50,o),
(145,100,c),
(145,175,o),
(389,312,o),
(389,312,c),
(389,312,o),
(520,0,o),
(695,0,c),
(770,0,o),
(870,150,o),
(870,200,c),
(870,250,o),
(820,125,o),
(720,125,c),
(570,125,o),
(491,348,o),
(491,348,c),
(491,348,o),
(820,475,o),
(820,650,c),
(820,725,o),
(770,800,o),
(720,800,c),
(670,800,o),
(620,775,o),
(620,750,c),
(620,725,o),
(695,690,o),
(695,665,c),
(695,525,o),
(454,432,o),
(454,432,c),
(454,432,o),
(345,800,o),
(220,800,c)
);
}
);
width = 890;
}
);
unicode = 88;
},
{
glyphname = Y;
lastChange = "2022-03-20 15:42:40 +0000";
layers = (
{
layerId = m01;
shapes = (
{
attr = {
fillColor = (0,255);
};
closed = 1;
nodes = (
(170,800,o),
(70,675,o),
(70,650,c),
(70,600,o),
(176,650,o),
(170,600,c),
(163,549,o),
(141,400,o),
(120,256,c),
(102,126,o),
(20,30,o),
(20,15,c),
(20,0,o),
(20,0,o),
(35,0,c),
(50,0,o),
(156,51,o),
(187,101,c),
(223,162,o),
(325,232,o),
(420,300,c),
(566,402,o),
(720,550,o),
(720,650,c),
(720,750,o),
(670,800,o),
(620,800,c),
(520,800,o),
(395,650,o),
(420,650,c),
(445,650,o),
(597,747,o),
(597,647,c),
(597,497,o),
(220,250,o),
(220,250,c),
(220,250,o),
(259,602,o),
(270,700,c),
(274,737,o),
(270,800,o),
(220,800,c)
);
}
);
width = 740;
}
);
unicode = 89;
},
{
glyphname = Z;
lastChange = "2022-03-20 15:56:17 +0000";
layers = (
{
layerId = m01;
shapes = (
{
attr = {
fillColor = (0,255);
};
closed = 1;
nodes = (
(470,800,o),
(220,650,o),
(270,650,c),
(320,650,o),
(820,650,o),
(820,650,c),
(619,498,l),
(619,498,o),
(620,550,o),
(520,550,c),
(420,550,o),
(20,325,o),
(20,100,c),
(20,50,o),
(70,0,o),
(120,0,c),
(170,0,o),
(257,55,o),
(324,110,c),
(424,191,o),
(505,285,o),
(505,285,c),
(505,285,o),
(470,0,o),
(520,0,c),
(720,-2,o),
(870,175,o),
(870,200,c),
(870,225,o),
(650,20,o),
(600,170,c),
(593,198,o),
(620,375,o),
(620,375,c),
(620,375,o),
(761,490,o),
(885,600,c),
(918,629,o),
(920,673,o),
(920,700,c),
(920,750,o),
(870,750,o),
(820,750,c),
(720,750,o),
(620,750,o),
(570,750,c),
(520,750,o),
(570,800,o),
(520,800,c)
);
},
{
attr = {
fillColor = (0,255);
};
closed = 1;
nodes = (
(513,400,o),
(270,125,o),
(170,125,c),
(45,125,o),
(345,450,o),
(495,450,c),
(520,450,o),
(513,400,o),
(513,400,c)
);
}
);
width = 940;
}
);
unicode = 90;
},
{
glyphname = a;
lastChange = "2022-03-21 11:43:04 +0000";
layers = (
{
layerId = m01;
shapes = (
{
attr = {
fillColor = (0,255);
};
closed = 1;
nodes = (
(220,600,o),
(220,600,o),
(195,600,c),
(145,600,o),
(70,525,o),
(70,500,c),
(70,475,o),
(120,500,o),
(120,475,c),
(120,375,o),
(120,200,o),
(120,50,c),
(120,0,o),
(20,-170,o),
(20,-185,c),
(20,-200,o),
(20,-200,o),
(35,-200,c),
(50,-200,o),
(220,0,o),
(220,50,c),
(220,100,o),
(220,150,o),
(220,150,c),
(220,150,o),
(320,50,o),
(420,50,c),
(495,50,o),
(595,100,o),
(595,200,c),
(596,297,o),
(570,400,o),
(420,400,c),
(321,400,o),
(220,300,o),
(220,300,c),
(220,350,l),
(220,350,o),
(320,500,o),
(420,500,c),
(470,500,o),
(545,450,o),
(570,450,c),
(595,450,o),
(595,475,o),
(595,500,c),
(595,550,o),
(520,585,o),
(420,585,c),
(320,585,o),
(220,465,o),
(220,465,c),
(220,465,o),
(220,503,o),
(220,550,c)
);
},
{
attr = {
fillColor = (0,255);
};
closed = 1;
nodes = (
(520,300,o),
(570,135,o),
(420,135,c),
(370,135,o),
(272,220,o),
(272,220,c),
(272,220,o),
(370,300,o),
(420,300,c)
);
}
);
width = 615;
}
);
unicode = 97;
},
{
glyphname = b;
lastChange = "2022-03-21 11:53:09 +0000";
layers = (
{
layerId = m01;
shapes = (
{
attr = {
fillColor = (0,255);
};
closed = 1;
nodes = (
(380,481,o),
(420,700,o),
(395,700,c),
(320,700,o),
(220,625,o),
(220,600,c),
(220,575,o),
(316,600,o),
(311,575,c),
(307,550,o),
(288,452,o),
(288,452,c),
(288,452,o),
(20,300,o),
(20,150,c),
(20,50,o),
(120,0,o),
(220,0,c),
(295,0,o),
(470,85,o),
(470,100,c),
(470,115,o),
(370,75,o),
(270,75,c),
(220,75,o),
(120,125,o),
(120,175,c),
(120,250,o),
(272,361,o),
(272,361,c),
(272,361,o),
(248,236,o),
(240,182,c),
(232,130,o),
(570,150,o),
(570,350,c),
(570,550,o),
(380,481,o),
(380,481,c)
);
},
{
attr = {
fillColor = (0,255);
};
closed = 1;
nodes = (
(365,400,o),
(470,450,o),
(470,350,c),
(470,250,o),
(336,231,o),
(339,249,c),
(344,277,o),
(365,400,o),
(365,400,c)
);
}
);
width = 590;
}
);
unicode = 98;
},
{
glyphname = c;
lastChange = "2022-03-21 12:38:52 +0000";
layers = (
{
layerId = m01;
shapes = (
{
attr = {
fillColor = (0,255);
};
closed = 1;
nodes = (
(470,600,o),
(445,600,o),
(420,600,c),
(405,600,o),
(395,590,o),
(395,575,c),
(395,560,o),
(20,500,o),
(20,200,c),
(20,-100,o),
(345,-100,o),
(370,-100,c),
(395,-100,o),
(120,0,o),
(120,200,c),
(120,400,o),
(370,500,o),
(370,475,c),
(370,450,o),
(370,200,o),
(370,150,c),
(370,100,o),
(470,175,o),
(470,200,c),
(470,300,o),
(470,500,o),
(470,550,c)
);
}
);
width = 490;
}
);
unicode = 99;
},
{
glyphname = d;
lastChange = "2022-03-22 16:58:02 +0000";
layers = (
{
layerId = m01;
shapes = (
{
attr = {
fillColor = (0,255);
};
closed = 1;
nodes = (
(420,800,o),
(420,800,o),
(370,800,c),
(345,800,o),
(220,750,o),
(220,700,c),
(221,652,o),
(320,700,o),
(320,650,c),
(320,600,o),
(320,530,o),
(320,530,c),
(320,530,o),
(20,450,o),
(20,200,c),
(20,125,o),
(120,0,o),
(320,0,c),
(420,0,o),
(420,100,o),
(420,100,c),
(420,446,l),
(420,446,o),
(451,460,o),
(472,441,c),
(490,425,o),
(495,400,o),
(520,400,c),
(570,400,o),
(620,475,o),
(620,500,c),
(620,575,o),
(420,548,o),
(420,548,c),
(420,548,o),
(420,700,o),
(420,750,c)
);
},
{
attr = {
fillColor = (0,255);
};
closed = 1;
nodes = (
(320,100,l),
(320,100,o),
(145,100,o),
(145,220,c),
(145,388,o),
(319,426,o),
(319,426,c)
);
}
);
width = 640;
}
);
unicode = 100;
},
{
glyphname = e;
lastChange = "2022-03-23 18:18:54 +0000";
layers = (
{
layerId = m01;
shapes = (
{
attr = {
fillColor = (0,255);
};
closed = 1;
nodes = (
(545,500,o),
(420,600,o),
(270,600,c),
(195,600,o),
(120,543,o),
(86,514,c),
(39,472,o),
(20,415,o),
(20,400,c),
(20,375,o),
(70,375,o),
(70,400,c),
(70,425,o),
(120,515,o),
(270,515,c),
(420,515,o),
(420,350,o),
(420,350,c),
(420,350,o),
(255,350,o),
(155,350,c),
(120,350,o),
(45,250,o),
(70,250,c),
(120,250,o),
(420,250,o),
(420,250,c),
(420,250,o),
(420,51,o),
(235,50,c),
(220,50,o),
(205,0,o),
(220,0,c),
(246,0,o),
(545,0,o),
(545,300,c)
);
}
);
width = 565;
}
);
unicode = 101;
},
{
glyphname = f;
lastChange = "2022-03-25 14:26:02 +0000";
layers = (
{
layerId = m01;
shapes = (
{
attr = {
fillColor = (0,255);
};
closed = 1;
nodes = (
(520,550,o),
(470,700,o),
(320,700,c),
(120,700,o),
(94,525,o),
(76,402,c),
(59,283,o),
(20,30,o),
(20,15,c),
(20,0,o),
(45,0,o),
(70,0,c),
(95,0,o),
(117,25,o),
(120,50,c),
(128,102,o),
(154,299,o),
(170,401,c),
(183,483,o),
(205,600,o),
(320,600,c),
(445,600,o),
(420,450,o),
(470,450,c),
(495,450,o),
(520,475,o),
(520,500,c)
);
}
);
width = 540;
}
);
unicode = 102;
},
{
glyphname = g;
lastChange = "2022-03-25 15:05:06 +0000";
layers = (
{
layerId = m01;
shapes = (
{
attr = {
fillColor = (0,255);
};
closed = 1;
nodes = (
(595,450,o),
(520,450,o),
(520,450,c),
(520,450,o),
(520,503,o),
(520,550,c),
(520,601,o),
(520,601,o),
(495,600,c),
(487,600,o),
(479,600,o),
(470,600,c),
(445,600,o),
(470,589,o),
(420,564,c),
(320,518,o),
(20,400,o),
(20,150,c),
(20,-150,o),
(405,-200,o),
(420,-200,c),
(435,-200,o),
(120,0,o),
(120,150,c),
(120,400,o),
(420,500,o),
(420,500,c),
(420,450,l),
(420,450,o),
(391,450,o),
(370,450,c),
(345,450,o),
(270,350,o),
(295,350,c),
(320,350,o),
(420,350,o),
(420,350,c),
(420,350,o),
(420,300,o),
(420,275,c),
(420,225,o),
(371,228,o),
(370,200,c),
(370,175,o),
(370,150,o),
(370,125,c),
(370,50,o),
(520,150,o),
(520,200,c),
(520,250,o),
(519,350,o),
(519,350,c),
(519,350,o),
(595,350,o),
(620,350,c),
(670,350,o),
(670,400,o),
(670,400,c),
(670,400,o),
(670,450,o),
(620,450,c)
);
}
);
width = 690;
}
);
unicode = 103;
},
